<?xml version="1.0" encoding="utf-8"?>
<!-- Generator: Adobe Illustrator 25.4.1, SVG Export Plug-In . SVG Version: 6.00 Build 0)  -->
<svg version="1.1" id="Ebene_1" xmlns="http://www.w3.org/2000/svg" xmlns:xlink="http://www.w3.org/1999/xlink" x="0px" y="0px"
	 viewBox="0 0 612 792" style="enable-background:new 0 0 612 792;" xml:space="preserve">
<style type="text/css">
	.st0{fill:#222222;}
</style>
<g>
	<path class="st0" d="M445.22,485.77c-13.01-1.2-25.04-5.49-36.26-11.95c-28.47-16.39-46.48-40.27-51.79-73.15
		c-0.2-1.21-1.82-3.09-2.84-3.13c-8.62-0.29-17.25-0.3-25.87-0.24c-6.43,0.05-13.29,1.27-17.73-4.99
		c-24.57-34.64-49.01-69.37-73.53-104.04c-2.42-3.42-5.07-6.67-7.98-10.47c-4.99,9.5-9.56,18.2-13.52,25.74
		c9,9.01,18.42,16.78,25.78,26.17c17.26,22.03,24.67,47.13,18.78,75.08c-7.89,37.46-30.77,62.2-66.07,75.78
		c-10.21,4.41-45.93,5.18-45.93,5.18c-12.43-1.25-24.01-5.22-34.92-11.15c-22.11-12.02-38.37-29.47-47.42-53.06
		c-2.95-7.69-4.47-15.92-6.65-23.9c0-6.67,0-13.33,0-20c0.3-0.34,0.83-0.66,0.88-1.03c3.03-24.25,13.98-44.33,32.17-60.45
		c29.84-26.45,63.75-34.13,101.82-21.36c3.38,1.13,4.73,0.73,6.37-2.51c12.96-25.55,25.98-51.07,39.39-76.39
		c3.77-7.11,6.1-15.38,13.37-20.25c15,0,30,0,45,0c5.49,4.27,7.17,7.92,5.7,12.4c-1.39,4.25-5.63,6.54-12.16,6.55
		c-9,0.01-18-0.12-27,0.13c-1.52,0.04-3.68,1.34-4.39,2.68c-6.56,12.36-12.74,24.92-19.34,37.25c-1.65,3.07-1.36,5.21,0.54,7.86
		c20.31,28.41,40.54,56.88,60.8,85.33c3.84,5.39,7.74,10.74,12.17,16.89c9.07-31.77,17.8-62.36,26.73-93.64
		c-4.11,0.71-7.5,1.14-10.81,1.9c-7.7,1.76-13.1-1.37-14.93-8.86c-1.34-5.47,3.39-11.72,9.77-13.39c18.27-4.8,36.87-5.77,55.63-5.08
		c5.86,0.22,10.62,4.8,10.99,10.59c0.34,5.38-3.38,10.59-8.97,11.3c-7.04,0.9-14.17,1.06-21.48,1.56
		c-10.3,36.11-20.66,72.4-31.25,109.52c8.68,0,16.45,0.1,24.21-0.13c0.94-0.03,2.18-1.71,2.65-2.89c0.53-1.32,0.17-2.97,0.47-4.41
		c4.72-22.54,15.57-41.48,33.14-56.53c24.6-21.08,52.79-30.59,84.79-23.85c41.86,8.82,69.08,34.24,80.74,75.72
		c1.3,4.63,2.02,9.41,3.01,14.13c0,4.67,0,9.33,0,14c-0.37,2.21-0.67,4.44-1.12,6.63c-7.75,38.63-30.18,65.03-66.77,79.25
		c-7.38,2.87-15.39,4.12-23.12,6.12 M380.83,396.71c-1.39,17.99,14.06,49.2,44.3,61.31c33.88,13.55,73.49,5.65,95.56-23.52
		c21.72-28.68,20.24-68.8-1.57-95.41c-24.56-29.97-67.16-34.91-99.24-19.2c-26.72,13.09-40.76,42.02-38.89,58.75
		c17.77,0,35.57-0.15,53.37,0.1c4.49,0.06,7.74-1.02,10.88-4.38c6.11-6.52,13.29-7.25,20.96-2.71c6.66,3.95,11.54,9.75,10.7,17.57
		c-0.94,8.75-7.2,14.56-15.41,17.04c-7.35,2.22-13.46-1.39-18.65-6.64c-1.03-1.04-2.59-2.09-3.95-2.15
		c-8.63-0.38-17.28-0.63-25.92-0.64c-6.81-0.01-13.62,0.51-20.43,0.55C388.63,397.41,384.72,396.95,380.83,396.71z M205.21,323.97
		c-9.25,17.86-18.15,34.96-26.92,52.12c-0.56,1.1-0.74,2.99-0.18,3.98c5.41,9.44,0.23,16.85-6.37,22.51
		c-6.64,5.69-15.91,5.41-22.1-0.04c-10.87-9.58-10.38-17.33-4.68-24.46c3.28-4.1,8.96-6.29,13.56-9.33
		c1.11-0.74,2.73-1.19,3.28-2.22c8.25-15.58,16.31-31.27,24.52-46.87c1.78-3.38,0.76-4.38-2.72-5.32
		c-12.7-3.43-25.53-3.87-38.35-1.62c-19.57,3.43-36.07,12.64-47.9,28.81c-12.26,16.75-16.98,35.58-14.28,56.43
		c2.1,16.27,8.03,30.69,19.43,42.26c22.65,22.97,50.5,29.01,80.96,20.96c33.8-8.93,53.15-35.18,55.69-69.25
		c1.19-15.96-2.84-31.18-11.21-44.87C222.31,337.86,214.77,330.25,205.21,323.97z"/>
</g>
</svg>
