<?xml version="1.0" encoding="utf-8"?>
<!-- Generator: Adobe Illustrator 25.4.1, SVG Export Plug-In . SVG Version: 6.00 Build 0)  -->
<svg version="1.1" id="Ebene_1" xmlns="http://www.w3.org/2000/svg" xmlns:xlink="http://www.w3.org/1999/xlink" x="0px" y="0px"
	 viewBox="0 0 1920 1080" style="enable-background:new 0 0 1920 1080;" xml:space="preserve">
<g>
	<path d="M964.01,540c-42.58,0-85.17,0-128,0c0-42.67,0-85.33,0-128c2.81-3.54,6.35-5.2,10.98-5.06c7.23,0.22,14.48,0.06,22.02,0.06
		c0-7.78,0.16-14.9-0.06-22.02c-0.14-4.63,1.52-8.18,5.06-10.98c42.67,0,85.33,0,128,0c0,42.67,0,85.33,0,128
		c-3.14,3.75-7.03,5.32-12.02,5.08c-6.88-0.33-13.79-0.08-20.98-0.08c0,7.44-0.25,14.22,0.08,20.98
		C969.33,532.97,967.76,536.86,964.01,540z M986.01,390.48c-0.97-0.26-1.28-0.42-1.59-0.42c-31.8-0.03-63.6,0.01-95.4-0.13
		c-4.09-0.02-4.04,2.22-4.04,5.11c0.04,30.3,0.09,60.6-0.05,90.9c-0.02,3.96,1.15,5.15,5.12,5.13c30.3-0.15,60.6-0.15,90.9,0
		c3.93,0.02,5.18-1.08,5.14-5.09c-0.19-19.48-0.09-38.96-0.09-58.44C986.01,415.26,986.01,402.96,986.01,390.48z M869.01,423
		c-4.26,0-7.92,0.28-11.52-0.07c-4.5-0.44-5.6,1.32-5.57,5.65c0.17,30.3,0.09,60.6,0.1,90.89c0,1.43,0.18,2.86,0.3,4.53
		c15.36,0,30.33,0,45.29,0c16.81,0,33.63,0.07,50.44-0.11c1.65-0.02,4.59-1.48,4.71-2.52c0.51-4.69,0.22-9.47,0.22-14.37
		c-24.23,0-47.69,0-71.16,0c-10.3,0-12.81-2.54-12.81-12.94C869.01,470.61,869.01,447.15,869.01,423z"/>
	<path d="M969,436.21c0,6.66,0.12,13.32-0.05,19.98c-0.1,3.88-1.85,7.6-5.67,8.32c-2.6,0.49-5.91-0.98-8.4-2.44
		c-1.22-0.72-1.76-3.39-1.79-5.2c-0.17-9.32-0.29-18.65,0.01-27.96c0.15-4.47-0.95-6.22-5.78-6.01c-9.14,0.39-18.31,0.12-27.46,0.11
		c-5.22-0.01-8.46-2.64-8.84-7.14c-0.39-4.68,2.8-8.66,8.01-8.76c13.98-0.26,27.97-0.22,41.95-0.01c4.5,0.07,7.91,4.28,8,9.14
		C969.09,422.89,969.01,429.55,969,436.21z"/>
</g>
</svg>
